HIERARCHY
ROOT Hips
{
	OFFSET 0.00000 0.00000 0.00000
	CHANNELS 6 Xposition Yposition Zposition Zrotation Yrotation Xrotation 
	JOINT LHipJoint
	{
		OFFSET 0 0 0
		CHANNELS 3 Zrotation Yrotation Xrotation
		JOINT LeftUpLeg
		{
			OFFSET 2.36090 -1.39315 1.24752
			CHANNELS 3 Zrotation Yrotation Xrotation
			JOINT LeftLeg
			{
				OFFSET 2.06810 -5.68207 0.00000
				CHANNELS 3 Zrotation Yrotation Xrotation
				JOINT LeftFoot
				{
					OFFSET 2.46631 -6.77613 0.00000
					CHANNELS 3 Zrotation Yrotation Xrotation
					JOINT LeftToeBase
					{
						OFFSET 0.26031 -0.71520 1.99545
						CHANNELS 3 Zrotation Yrotation Xrotation
						End Site
						{
							OFFSET 0.00000 -0.00000 1.05957
						}
					}
				}
			}
		}
	}
	JOINT RHipJoint
	{
		OFFSET 0 0 0
		CHANNELS 3 Zrotation Yrotation Xrotation
		JOINT RightUpLeg
		{
			OFFSET -2.25243 -1.39315 1.24752
			CHANNELS 3 Zrotation Yrotation Xrotation
			JOINT RightLeg
			{
				OFFSET -2.17343 -5.97145 0.00000
				CHANNELS 3 Zrotation Yrotation Xrotation
				JOINT RightFoot
				{
					OFFSET -2.52372 -6.93386 0.00000
					CHANNELS 3 Zrotation Yrotation Xrotation
					JOINT RightToeBase
					{
						OFFSET -0.22538 -0.61923 2.11447
						CHANNELS 3 Zrotation Yrotation Xrotation
						End Site
						{
							OFFSET -0.00000 -0.00000 1.10506
						}
					}
				}
			}
		}
	}
	JOINT LowerBack
	{
		OFFSET 0 0 0
		CHANNELS 3 Zrotation Yrotation Xrotation
		JOINT Spine
		{
			OFFSET 0.01594 2.13103 0.08007
			CHANNELS 3 Zrotation Yrotation Xrotation
			JOINT Spine1
			{
				OFFSET 0.01393 2.09723 0.18338
				CHANNELS 3 Zrotation Yrotation Xrotation
				JOINT Neck
				{
					OFFSET 0 0 0
					CHANNELS 3 Zrotation Yrotation Xrotation
					JOINT Neck1
					{
						OFFSET 0.05351 1.38915 0.32494
						CHANNELS 3 Zrotation Yrotation Xrotation
						JOINT Head
						{
							OFFSET 0.00711 1.45992 -0.21666
							CHANNELS 3 Zrotation Yrotation Xrotation
							End Site
							{
								OFFSET -0.00433 1.47702 -0.11056
							}
						}
					}
				}
				JOINT LeftShoulder
				{
					OFFSET 0 0 0
					CHANNELS 3 Zrotation Yrotation Xrotation
					JOINT LeftArm
					{
						OFFSET 2.87198 0.92249 0.11132
						CHANNELS 3 Zrotation Yrotation Xrotation
						JOINT LeftForeArm
						{
							OFFSET 5.52731 -0.00000 0.00000
							CHANNELS 3 Zrotation Yrotation Xrotation
							JOINT LeftHand
							{
								OFFSET 3.11059 -0.00000 0.00000
								CHANNELS 3 Zrotation Yrotation Xrotation
								JOINT LeftFingerBase
								{
									OFFSET 0 0 0
									CHANNELS 3 Zrotation Yrotation Xrotation
									JOINT LeftHandIndex1
									{
										OFFSET 0.41963 -0.00000 0.00000
										CHANNELS 3 Zrotation Yrotation Xrotation
										End Site
										{
											OFFSET 0.33831 -0.00000 0.00000
										}
									}
								}
								JOINT LThumb
								{
									OFFSET 0 0 0
									CHANNELS 3 Zrotation Yrotation Xrotation
									End Site
									{
										OFFSET 0.34348 -0.00000 0.34348
									}
								}
							}
						}
					}
				}
				JOINT RightShoulder
				{
					OFFSET 0 0 0
					CHANNELS 3 Zrotation Yrotation Xrotation
					JOINT RightArm
					{
						OFFSET -2.94710 0.68072 0.32187
						CHANNELS 3 Zrotation Yrotation Xrotation
						JOINT RightForeArm
						{
							OFFSET -5.25396 -0.00000 -0.00000
							CHANNELS 3 Zrotation Yrotation Xrotation
							JOINT RightHand
							{
								OFFSET -3.10567 -0.00000 0.00000
								CHANNELS 3 Zrotation Yrotation Xrotation
								JOINT RightFingerBase
								{
									OFFSET 0 0 0
									CHANNELS 3 Zrotation Yrotation Xrotation
									JOINT RightHandIndex1
									{
										OFFSET -0.49868 -0.00000 0.00000
										CHANNELS 3 Zrotation Yrotation Xrotation
										End Site
										{
											OFFSET -0.40204 -0.00000 0.00000
										}
									}
								}
								JOINT RThumb
								{
									OFFSET 0 0 0
									CHANNELS 3 Zrotation Yrotation Xrotation
									End Site
									{
										OFFSET -0.40818 -0.00000 0.40818
									}
								}
							}
						}
					}
				}
			}
		}
	}
}
MOTION
Frames: 14
Frame Time: .0083333
6.6959 2.1437 26.9569 -176.3680 -29.1063 123.8340 0.0000 0.0000 0.0000 12.3799 -20.9084 -85.0039 24.0612 19.5999 101.9508 0.3235 -15.4935 24.9850 9.1954 -16.9318 -56.7633 0.0000 0.0000 0.0000 -0.3476 24.1032 -82.0298 -24.5587 -19.4943 103.4375 -1.9220 0.3500 26.3699 -0.3120 3.5909 -9.9286 6.0719 4.4499 8.8290 2.5916 4.8146 12.3709 -0.7316 2.2193 8.5694 8.8412 6.5797 -17.1261 -1.1756 5.5254 37.0305 -1.2197 2.6503 16.5675 0.0000 -0.0000 0.0000 -73.7607 48.5915 8.4461 17.3840 -27.3612 -4.2623 -0.0000 0.0000 -24.4432 88.7516 -29.2822 -87.4488 -7.1250 0.0000 -0.0000 36.4146 -49.7988 -53.9059 0.0000 -0.0000 0.0000 76.0242 -47.4414 40.6168 -16.5951 26.3209 -3.9061 0.0000 -0.0000 -6.2699 -74.2808 -20.0721 50.6460 7.1250 -0.0000 -0.0000 -81.1702 -64.7318 52.5296
6.6831 2.1516 26.9134 -176.0880 -29.0402 123.4790 0.0000 0.0000 0.0000 12.6406 -21.0646 -84.9359 24.1613 19.5797 102.2493 0.3067 -15.5440 24.9032 9.3180 -17.0080 -57.1835 0.0000 0.0000 0.0000 -0.0053 24.0445 -81.7717 -24.6715 -19.4685 103.7758 -1.8880 0.2389 26.0982 -0.3388 3.7403 -10.3471 6.0915 4.4083 8.5880 2.7547 4.7108 12.4948 -0.5464 2.1576 8.8297 8.7839 6.6544 -17.3479 -1.2415 5.7069 36.8913 -1.1931 2.7199 16.5595 -0.0000 0.0000 0.0000 -73.8230 48.7033 8.2222 17.3990 -27.3808 -4.2692 -0.0000 0.0000 -24.2904 88.4791 -29.2813 -86.8927 -7.1250 0.0000 -0.0000 36.0695 -49.4119 -53.4491 -0.0000 0.0000 0.0000 75.7641 -47.6880 40.9435 -16.7698 26.5533 -3.9839 0.0000 -0.0000 -6.4051 -74.3476 -20.1228 50.8396 7.1250 -0.0000 -0.0000 -81.5661 -64.7599 52.9670
6.6704 2.1593 26.8695 -175.8340 -29.0179 123.1360 0.0000 0.0000 0.0000 12.8534 -21.2501 -84.8447 24.2500 19.5613 102.5140 0.3025 -15.5663 24.8941 9.4322 -17.0780 -57.5733 0.0000 0.0000 0.0000 0.2796 23.9579 -81.5302 -24.7902 -19.4407 104.1320 -1.8553 0.1427 25.8383 -0.3664 3.8881 -10.7621 6.0663 4.3694 8.3583 2.9045 4.6111 12.6146 -0.3525 2.0945 9.0767 8.7287 6.7150 -17.5395 -1.3099 5.8673 36.7455 -1.1730 2.7801 16.5397 -0.0000 0.0000 0.0000 -73.9083 48.7712 7.8337 17.3693 -27.3421 -4.2556 -0.0000 0.0000 -23.9950 88.1758 -29.2668 -86.2727 -7.1250 0.0000 -0.0000 35.7013 -48.9741 -52.9622 -0.0000 0.0000 0.0000 75.5309 -47.9511 41.2447 -16.9489 26.7904 -4.0643 0.0000 -0.0000 -6.5118 -74.4507 -20.2032 51.1413 7.1250 -0.0000 -0.0000 -82.1842 -64.8025 53.6516
6.6581 2.1664 26.8256 -175.6450 -29.0842 122.7980 0.0000 0.0000 0.0000 12.9356 -21.4872 -84.6727 24.3222 19.5461 102.7298 0.3116 -15.5429 24.9435 9.5407 -17.1433 -57.9418 0.0000 0.0000 0.0000 0.4538 23.8375 -81.2924 -24.9205 -19.4093 104.5240 -1.8252 0.0432 25.5939 -0.3908 4.0140 -11.1161 5.9482 4.3369 8.1650 3.0207 4.5210 12.7425 -0.1463 2.0286 9.3065 8.6765 6.7664 -17.7237 -1.3754 6.0101 36.6013 -1.1558 2.8334 16.5180 -0.0000 -0.0000 0.0000 -73.9620 48.8688 7.5123 17.3765 -27.3514 -4.2589 -0.0000 0.0000 -23.7483 87.8593 -29.2372 -85.6236 -7.1250 0.0000 -0.0000 35.3333 -48.5088 -52.4758 -0.0000 -0.0000 0.0000 75.3426 -48.2200 41.5073 -17.1296 27.0283 -4.1460 0.0000 -0.0000 -6.5908 -74.5911 -20.2994 51.5349 7.1250 -0.0000 -0.0000 -82.9920 -64.8475 54.5380
6.6463 2.1730 26.7818 -175.5340 -29.2477 122.4700 0.0000 0.0000 0.0000 12.8688 -21.7726 -84.4159 24.3788 19.5339 102.8991 0.3320 -15.4753 25.0349 9.6390 -17.2018 -58.2749 0.0000 0.0000 0.0000 0.5024 23.6868 -81.0618 -25.0625 -19.3741 104.9517 -1.7957 -0.0259 25.3620 -0.4143 4.1315 -11.4470 5.7239 4.3125 8.0077 3.0999 4.4442 12.8792 0.0759 1.9607 9.5190 8.6451 6.8122 -17.8995 -1.4501 6.1384 36.4636 -1.1493 2.8817 16.4986 0.0000 0.0000 0.0000 -73.9720 49.0153 7.3229 17.4398 -27.4339 -4.2880 -0.0000 0.0000 -23.6066 87.5208 -29.1827 -84.9255 -7.1250 0.0000 -0.0000 34.9613 -47.9979 -51.9864 0.0000 0.0000 0.0000 75.2028 -48.4900 41.7198 -17.3091 27.2635 -4.2280 0.0000 -0.0000 -6.6567 -74.7293 -20.3802 51.9043 7.1250 -0.0000 -0.0000 -83.7511 -64.8789 55.3622
6.6350 2.1790 26.7380 -175.4700 -29.4650 122.1500 0.0000 0.0000 0.0000 12.7153 -22.0772 -84.1131 24.4276 19.5233 103.0451 0.3596 -15.3832 25.1575 9.7246 -17.2521 -58.5639 0.0000 0.0000 0.0000 0.4764 23.5225 -80.8399 -25.2112 -19.3360 105.4004 -1.7664 -0.0503 25.1456 -0.4408 4.2599 -11.8089 5.4541 4.2939 7.8842 3.1421 4.3809 13.0147 0.2811 1.8967 9.7107 8.6542 6.8572 -18.0692 -1.5291 6.2499 36.3362 -1.1552 2.9273 16.4850 -0.0000 0.0000 0.0000 -73.9229 49.1918 7.2105 17.5350 -27.5576 -4.3319 -0.0000 0.0000 -23.5213 87.1747 -29.1233 -84.2099 -7.1250 0.0000 -0.0000 34.5907 -47.4720 -51.4946 -0.0000 0.0000 0.0000 75.1256 -48.7665 41.8836 -17.4860 27.4940 -4.3093 0.0000 -0.0000 -6.7157 -74.8715 -20.4492 52.2666 7.1250 -0.0000 -0.0000 -84.4954 -64.8984 56.1610
6.6237 2.1843 26.6944 -175.4230 -29.6809 121.8500 0.0000 0.0000 0.0000 12.5614 -22.3666 -83.8213 24.4782 19.5122 103.1964 0.3897 -15.2907 25.2998 9.7970 -17.2941 -58.8079 0.0000 0.0000 0.0000 0.4337 23.3673 -80.6422 -25.3606 -19.2966 105.8520 -1.7396 -0.0576 24.9501 -0.4688 4.3917 -12.1813 5.1970 4.2801 7.7704 3.1653 4.3288 13.1429 0.4583 1.8401 9.8934 8.6932 6.9076 -18.2430 -1.6120 6.3583 36.2150 -1.1683 2.9749 16.4776 0.0000 -0.0000 0.0000 -73.8254 49.3850 7.1647 17.6515 -27.7087 -4.3860 -0.0000 0.0000 -23.4847 86.7949 -29.0708 -83.4258 -7.1250 0.0000 -0.0000 34.1839 -46.8988 -50.9448 0.0000 -0.0000 0.0000 75.0945 -49.0428 42.0107 -17.6611 27.7210 -4.3905 0.0000 -0.0000 -6.7816 -74.9823 -20.4930 52.5366 7.1250 -0.0000 -0.0000 -85.0491 -64.9051 56.7483
6.6125 2.1891 26.6511 -175.3740 -29.8606 121.5740 0.0000 0.0000 0.0000 12.4572 -22.6173 -83.5752 24.5364 19.4993 103.3709 0.4187 -15.2144 25.4509 9.8517 -17.3256 -58.9917 0.0000 0.0000 0.0000 0.4133 23.2355 -80.4708 -25.5048 -19.2574 106.2886 -1.7146 -0.0459 24.7728 -0.4985 4.5264 -12.5625 4.9935 4.2706 7.6558 3.1789 4.2872 13.2586 0.5958 1.7945 10.0703 8.7596 6.9677 -18.4179 -1.6919 6.4691 36.0968 -1.1840 3.0275 16.4742 -0.0000 0.0000 0.0000 -73.6553 49.6205 7.2891 17.8109 -27.9143 -4.4603 -0.0000 0.0000 -23.5733 86.4027 -29.0111 -82.6140 -7.1250 0.0000 -0.0000 33.7760 -46.3019 -50.3880 -0.0000 0.0000 0.0000 75.1029 -49.3204 42.1188 -17.8315 27.9409 -4.4700 0.0000 -0.0000 -6.8394 -75.0710 -20.5565 52.7898 7.1250 -0.0000 -0.0000 -85.5717 -64.9252 57.3254
6.6010 2.1935 26.6082 -175.2720 -29.9257 121.3270 0.0000 0.0000 0.0000 12.5274 -22.7899 -83.4478 24.6123 19.4821 103.5982 0.4429 -15.1866 25.6187 9.8944 -17.3500 -59.1348 0.0000 0.0000 0.0000 0.5075 23.1550 -80.3340 -25.6354 -19.2209 106.6850 -1.6924 -0.0461 24.6112 -0.5270 4.6522 -12.9193 4.9293 4.2634 7.5191 3.2058 4.2532 13.3464 0.6725 1.7664 10.2427 8.8551 7.0358 -18.5774 -1.7698 6.5801 35.9779 -1.2038 3.0843 16.4689 0.0000 -0.0000 0.0000 -73.4304 49.8584 7.4670 17.9656 -28.1131 -4.5330 -0.0000 0.0000 -23.6824 86.0066 -28.9556 -81.7945 -7.1250 0.0000 -0.0000 33.3702 -45.7003 -49.8261 0.0000 -0.0000 0.0000 75.1446 -49.6105 42.2093 -17.9998 28.1569 -4.5492 0.0000 -0.0000 -6.8871 -75.1373 -20.6408 53.0261 7.1250 -0.0000 -0.0000 -86.0637 -64.9598 57.8936
6.5898 2.1973 26.5659 -175.1900 -29.9769 121.0980 0.0000 0.0000 0.0000 12.6052 -22.9288 -83.3335 24.6944 19.4632 103.8445 0.4653 -15.1675 25.7796 9.9249 -17.3674 -59.2369 0.0000 0.0000 0.0000 0.6008 23.0970 -80.2151 -25.7615 -19.1848 107.0685 -1.6743 -0.0557 24.4750 -0.5498 4.7502 -13.1975 4.8844 4.2677 7.3945 3.2324 4.2375 13.4267 0.7376 1.7495 10.4025 8.9234 7.1055 -18.7321 -1.8164 6.6920 35.8542 -1.2051 3.1424 16.4570 -0.0000 0.0000 0.0000 -73.1679 50.0464 7.6077 18.0664 -28.2422 -4.5806 -0.0000 0.0000 -23.7138 85.5886 -28.8914 -80.9281 -7.1250 0.0000 -0.0000 32.9546 -45.0603 -49.2443 -0.0000 0.0000 0.0000 75.2180 -49.9153 42.2598 -18.1672 28.3707 -4.6284 0.0000 -0.0000 -6.9224 -75.1899 -20.7422 53.2569 7.1250 -0.0000 -0.0000 -86.5493 -65.0051 58.4724
6.5790 2.2006 26.5245 -175.1280 -30.0179 120.8880 0.0000 0.0000 0.0000 12.6835 -23.0392 -83.2322 24.7831 19.4424 104.1109 0.4848 -15.1608 25.9293 9.9447 -17.3786 -59.3033 0.0000 0.0000 0.0000 0.6899 23.0607 -80.1141 -25.8832 -19.1491 107.4392 -1.6571 -0.0398 24.3535 -0.5698 4.8343 -13.4366 4.9112 4.2670 7.3767 3.1913 4.2398 13.4376 0.6812 1.7565 10.4321 9.0426 7.1827 -18.8717 -1.7888 6.7605 35.7840 -1.1922 3.1977 16.4663 0.0000 0.0000 0.0000 -72.7125 50.3356 7.8819 18.1695 -28.3737 -4.6295 -0.0000 0.0000 -23.8019 85.1676 -28.8165 -80.0518 -7.1250 0.0000 -0.0000 32.5508 -44.4075 -48.6734 0.0000 0.0000 0.0000 75.4111 -50.3123 42.2776 -18.3281 28.5753 -4.7051 0.0000 -0.0000 -6.9117 -75.2392 -20.8528 53.4921 7.1250 -0.0000 -0.0000 -87.0465 -65.0544 59.0718
6.5685 2.2033 26.4837 -175.0730 -30.0372 120.6920 0.0000 0.0000 0.0000 12.7837 -23.1173 -83.1539 24.8780 19.4197 104.3962 0.5003 -15.1721 26.0671 9.9595 -17.3870 -59.3528 0.0000 0.0000 0.0000 0.7945 23.0466 -80.0261 -26.0002 -19.1140 107.7961 -1.6424 -0.0461 24.2422 -0.5814 4.8826 -13.5739 5.0014 4.2618 7.4428 3.1096 4.2535 13.3955 0.5389 1.7805 10.3607 9.1857 7.2669 -19.0289 -1.7068 6.8016 35.7747 -1.1651 3.2503 16.5085 -0.0000 0.0000 0.0000 -72.1211 50.7258 8.3187 18.3061 -28.5473 -4.6946 -0.0000 0.0000 -23.9878 84.7660 -28.7415 -79.2141 -7.1250 0.0000 -0.0000 32.1757 -43.7809 -48.1366 -0.0000 0.0000 0.0000 75.6778 -50.7775 42.2775 -18.4854 28.7743 -4.7806 0.0000 -0.0000 -6.8659 -75.3178 -20.9722 53.7938 7.1250 -0.0000 -0.0000 -87.6827 -65.0993 59.8169
6.5584 2.2054 26.4437 -175.0350 -30.0466 120.5100 0.0000 0.0000 0.0000 12.8851 -23.1680 -83.0909 24.9777 19.3953 104.6962 0.5104 -15.1988 26.1782 9.9696 -17.3927 -59.3867 0.0000 0.0000 0.0000 0.8987 23.0523 -79.9523 -26.1135 -19.0793 108.1423 -1.6285 -0.0483 24.1383 -0.5884 4.9111 -13.6551 5.1594 4.2488 7.5924 2.9625 4.2761 13.3029 0.2821 1.8215 10.1946 9.3992 7.3686 -19.2039 -1.5789 6.8162 35.8177 -1.1346 3.3064 16.5832 0.0000 -0.0000 0.0000 -71.3592 51.2293 8.9437 18.4930 -28.7838 -4.7843 -0.0000 0.0000 -24.3049 84.3688 -28.6544 -78.3807 -7.1250 0.0000 -0.0000 31.8187 -43.1507 -47.6211 0.0000 -0.0000 0.0000 76.0521 -51.2969 42.2541 -18.6347 28.9622 -4.8527 0.0000 -0.0000 -6.7833 -75.4182 -21.0722 54.1131 7.1250 -0.0000 -0.0000 -88.3510 -65.1252 60.5746
6.5486 2.2068 26.4044 -175.0080 -30.0498 120.3420 0.0000 0.0000 0.0000 12.9849 -23.2011 -83.0407 25.0807 19.3695 105.0066 0.5142 -15.2357 26.2503 9.9815 -17.3994 -59.4266 0.0000 0.0000 0.0000 0.9992 23.0716 -79.8934 -26.2241 -19.0447 108.4811 -1.6157 -0.0502 24.0423 -0.5919 4.9254 -13.6959 5.3442 4.2299 7.7874 2.7833 4.3004 13.1830 -0.0274 1.8681 9.9771 9.6622 7.4857 -19.3862 -1.4334 6.8231 35.8894 -1.1056 3.3678 16.6771 -0.0000 0.0000 0.0000 -70.5428 51.7691 9.5785 18.6867 -29.0275 -4.8779 -0.0000 0.0000 -24.6320 83.9731 -28.5669 -77.5493 -7.1250 0.0000 -0.0000 31.4708 -42.5207 -47.1119 -0.0000 0.0000 0.0000 76.4654 -51.8404 42.2294 -18.7792 29.1434 -4.9229 0.0000 -0.0000 -6.6776 -75.5534 -21.1635 54.4893 7.1250 -0.0000 -0.0000 -89.1329 -65.1336 61.4371
